<?xml version="1.0" encoding="utf-8"?>
<!-- Generator: Adobe Illustrator 25.1.0, SVG Export Plug-In . SVG Version: 6.00 Build 0)  -->
<svg version="1.1" xmlns="http://www.w3.org/2000/svg" xmlns:xlink="http://www.w3.org/1999/xlink" x="0px" y="0px"
	 viewBox="0 0 432 432" enable-background="new 0 0 432 432" xml:space="preserve">
<g id="Iso_Grid" display="none">
	<g display="inline">
		<defs>
			<rect id="SVGID_1_" x="-452" width="432" height="432"/>
		</defs>
		<clipPath id="SVGID_2_">
			<use xlink:href="#SVGID_1_"  overflow="visible"/>
		</clipPath>
		<g clip-path="url(#SVGID_2_)">
			<g>
				<line fill="none" stroke="#B6E4FA" stroke-width="0.5" stroke-miterlimit="10" x1="8.8" y1="-99.4" x2="8.8" y2="531.4"/>
				<line fill="none" stroke="#B6E4FA" stroke-width="0.5" stroke-miterlimit="10" x1="23.2" y1="-99.4" x2="23.2" y2="531.4"/>
				<line fill="none" stroke="#B6E4FA" stroke-width="0.5" stroke-miterlimit="10" x1="37.6" y1="-99.4" x2="37.6" y2="531.4"/>
				<line fill="none" stroke="#B6E4FA" stroke-width="0.5" stroke-miterlimit="10" x1="52" y1="-99.4" x2="52" y2="531.4"/>
				<line fill="none" stroke="#B6E4FA" stroke-width="0.5" stroke-miterlimit="10" x1="66.4" y1="-99.4" x2="66.4" y2="531.4"/>
				<line fill="none" stroke="#B6E4FA" stroke-width="0.5" stroke-miterlimit="10" x1="80.8" y1="-99.4" x2="80.8" y2="531.4"/>
				<line fill="none" stroke="#B6E4FA" stroke-width="0.5" stroke-miterlimit="10" x1="95.2" y1="-99.4" x2="95.2" y2="531.4"/>
				<line fill="none" stroke="#B6E4FA" stroke-width="0.5" stroke-miterlimit="10" x1="109.6" y1="-99.4" x2="109.6" y2="531.4"/>
			</g>
			<g>
				<line fill="none" stroke="#B6E4FA" stroke-width="0.5" stroke-miterlimit="10" x1="-541.5" y1="101.9" x2="4.8" y2="417.3"/>
				<line fill="none" stroke="#B6E4FA" stroke-width="0.5" stroke-miterlimit="10" x1="-534.3" y1="89.5" x2="12" y2="404.9"/>
				<line fill="none" stroke="#B6E4FA" stroke-width="0.5" stroke-miterlimit="10" x1="-527.1" y1="77" x2="19.2" y2="392.4"/>
				<line fill="none" stroke="#B6E4FA" stroke-width="0.5" stroke-miterlimit="10" x1="-519.9" y1="64.5" x2="26.4" y2="379.9"/>
				<line fill="none" stroke="#B6E4FA" stroke-width="0.5" stroke-miterlimit="10" x1="-512.7" y1="52.1" x2="33.6" y2="367.5"/>
				<line fill="none" stroke="#B6E4FA" stroke-width="0.5" stroke-miterlimit="10" x1="-505.5" y1="39.6" x2="40.8" y2="355"/>
				<line fill="none" stroke="#B6E4FA" stroke-width="0.5" stroke-miterlimit="10" x1="-498.3" y1="27.1" x2="48" y2="342.5"/>
				<line fill="none" stroke="#B6E4FA" stroke-width="0.5" stroke-miterlimit="10" x1="-491.1" y1="14.7" x2="55.2" y2="330.1"/>
				<line fill="none" stroke="#B6E4FA" stroke-width="0.5" stroke-miterlimit="10" x1="-483.9" y1="2.2" x2="62.4" y2="317.6"/>
				<line fill="none" stroke="#B6E4FA" stroke-width="0.5" stroke-miterlimit="10" x1="-476.7" y1="-10.3" x2="69.6" y2="305.1"/>
				<line fill="none" stroke="#B6E4FA" stroke-width="0.5" stroke-miterlimit="10" x1="-469.5" y1="-22.8" x2="76.8" y2="292.6"/>
				<line fill="none" stroke="#B6E4FA" stroke-width="0.5" stroke-miterlimit="10" x1="-462.3" y1="-35.2" x2="84" y2="280.2"/>
				<line fill="none" stroke="#B6E4FA" stroke-width="0.5" stroke-miterlimit="10" x1="-455.1" y1="-47.7" x2="91.2" y2="267.7"/>
				<line fill="none" stroke="#B6E4FA" stroke-width="0.5" stroke-miterlimit="10" x1="-447.9" y1="-60.2" x2="98.4" y2="255.2"/>
				<line fill="none" stroke="#B6E4FA" stroke-width="0.5" stroke-miterlimit="10" x1="-440.7" y1="-72.6" x2="105.6" y2="242.8"/>
				<line fill="none" stroke="#B6E4FA" stroke-width="0.5" stroke-miterlimit="10" x1="-433.5" y1="-85.1" x2="112.8" y2="230.3"/>
				<line fill="none" stroke="#B6E4FA" stroke-width="0.5" stroke-miterlimit="10" x1="-426.3" y1="-97.6" x2="120" y2="217.8"/>
				<line fill="none" stroke="#B6E4FA" stroke-width="0.5" stroke-miterlimit="10" x1="-419.1" y1="-110.1" x2="127.2" y2="205.3"/>
				<line fill="none" stroke="#B6E4FA" stroke-width="0.5" stroke-miterlimit="10" x1="-411.9" y1="-122.5" x2="134.4" y2="192.9"/>
				<line fill="none" stroke="#B6E4FA" stroke-width="0.5" stroke-miterlimit="10" x1="-404.7" y1="-135" x2="141.6" y2="180.4"/>
				<line fill="none" stroke="#B6E4FA" stroke-width="0.5" stroke-miterlimit="10" x1="-397.5" y1="-147.5" x2="148.8" y2="167.9"/>
				<line fill="none" stroke="#B6E4FA" stroke-width="0.5" stroke-miterlimit="10" x1="-390.3" y1="-159.9" x2="156" y2="155.5"/>
				<line fill="none" stroke="#B6E4FA" stroke-width="0.5" stroke-miterlimit="10" x1="-383.1" y1="-172.4" x2="163.2" y2="143"/>
				<line fill="none" stroke="#B6E4FA" stroke-width="0.5" stroke-miterlimit="10" x1="-375.9" y1="-184.9" x2="170.4" y2="130.5"/>
				<line fill="none" stroke="#B6E4FA" stroke-width="0.5" stroke-miterlimit="10" x1="-368.7" y1="-197.3" x2="177.6" y2="118"/>
				<line fill="none" stroke="#B6E4FA" stroke-width="0.5" stroke-miterlimit="10" x1="-361.5" y1="-209.8" x2="184.8" y2="105.6"/>
				<line fill="none" stroke="#B6E4FA" stroke-width="0.5" stroke-miterlimit="10" x1="-354.3" y1="-222.3" x2="192" y2="93.1"/>
				<line fill="none" stroke="#B6E4FA" stroke-width="0.5" stroke-miterlimit="10" x1="-347.1" y1="-234.8" x2="199.2" y2="80.6"/>
				<line fill="none" stroke="#B6E4FA" stroke-width="0.5" stroke-miterlimit="10" x1="-339.9" y1="-247.2" x2="206.4" y2="68.2"/>
			</g>
			<g>
				<line fill="none" stroke="#B6E4FA" stroke-width="0.5" stroke-miterlimit="10" x1="220.7" y1="363.8" x2="-325.6" y2="679.2"/>
				<line fill="none" stroke="#B6E4FA" stroke-width="0.5" stroke-miterlimit="10" x1="213.5" y1="351.4" x2="-332.8" y2="666.8"/>
				<line fill="none" stroke="#B6E4FA" stroke-width="0.5" stroke-miterlimit="10" x1="206.3" y1="338.9" x2="-340" y2="654.3"/>
				<line fill="none" stroke="#B6E4FA" stroke-width="0.5" stroke-miterlimit="10" x1="199.1" y1="326.4" x2="-347.2" y2="641.8"/>
				<line fill="none" stroke="#B6E4FA" stroke-width="0.5" stroke-miterlimit="10" x1="191.9" y1="314" x2="-354.4" y2="629.3"/>
				<line fill="none" stroke="#B6E4FA" stroke-width="0.5" stroke-miterlimit="10" x1="184.7" y1="301.5" x2="-361.6" y2="616.9"/>
				<line fill="none" stroke="#B6E4FA" stroke-width="0.5" stroke-miterlimit="10" x1="177.5" y1="289" x2="-368.8" y2="604.4"/>
				<line fill="none" stroke="#B6E4FA" stroke-width="0.5" stroke-miterlimit="10" x1="170.3" y1="276.5" x2="-376" y2="591.9"/>
				<line fill="none" stroke="#B6E4FA" stroke-width="0.5" stroke-miterlimit="10" x1="163.1" y1="264.1" x2="-383.2" y2="579.5"/>
				<line fill="none" stroke="#B6E4FA" stroke-width="0.5" stroke-miterlimit="10" x1="155.9" y1="251.6" x2="-390.4" y2="567"/>
				<line fill="none" stroke="#B6E4FA" stroke-width="0.5" stroke-miterlimit="10" x1="148.7" y1="239.1" x2="-397.6" y2="554.5"/>
				<line fill="none" stroke="#B6E4FA" stroke-width="0.5" stroke-miterlimit="10" x1="141.5" y1="226.7" x2="-404.8" y2="542.1"/>
				<line fill="none" stroke="#B6E4FA" stroke-width="0.5" stroke-miterlimit="10" x1="134.3" y1="214.2" x2="-412" y2="529.6"/>
				<line fill="none" stroke="#B6E4FA" stroke-width="0.5" stroke-miterlimit="10" x1="127.1" y1="201.7" x2="-419.2" y2="517.1"/>
				<line fill="none" stroke="#B6E4FA" stroke-width="0.5" stroke-miterlimit="10" x1="119.9" y1="189.2" x2="-426.4" y2="504.6"/>
				<line fill="none" stroke="#B6E4FA" stroke-width="0.5" stroke-miterlimit="10" x1="112.7" y1="176.8" x2="-433.6" y2="492.2"/>
				<line fill="none" stroke="#B6E4FA" stroke-width="0.5" stroke-miterlimit="10" x1="105.5" y1="164.3" x2="-440.8" y2="479.7"/>
				<line fill="none" stroke="#B6E4FA" stroke-width="0.5" stroke-miterlimit="10" x1="98.3" y1="151.8" x2="-448" y2="467.2"/>
				<line fill="none" stroke="#B6E4FA" stroke-width="0.5" stroke-miterlimit="10" x1="91.1" y1="139.4" x2="-455.2" y2="454.8"/>
				<line fill="none" stroke="#B6E4FA" stroke-width="0.5" stroke-miterlimit="10" x1="83.9" y1="126.9" x2="-462.4" y2="442.3"/>
				<line fill="none" stroke="#B6E4FA" stroke-width="0.5" stroke-miterlimit="10" x1="76.7" y1="114.4" x2="-469.6" y2="429.8"/>
				<line fill="none" stroke="#B6E4FA" stroke-width="0.5" stroke-miterlimit="10" x1="69.5" y1="101.9" x2="-476.8" y2="417.3"/>
				<line fill="none" stroke="#B6E4FA" stroke-width="0.5" stroke-miterlimit="10" x1="62.3" y1="89.5" x2="-484" y2="404.9"/>
				<line fill="none" stroke="#B6E4FA" stroke-width="0.5" stroke-miterlimit="10" x1="55.1" y1="77" x2="-491.2" y2="392.4"/>
				<line fill="none" stroke="#B6E4FA" stroke-width="0.5" stroke-miterlimit="10" x1="47.9" y1="64.5" x2="-498.4" y2="379.9"/>
				<line fill="none" stroke="#B6E4FA" stroke-width="0.5" stroke-miterlimit="10" x1="40.7" y1="52.1" x2="-505.6" y2="367.5"/>
				<line fill="none" stroke="#B6E4FA" stroke-width="0.5" stroke-miterlimit="10" x1="33.5" y1="39.6" x2="-512.8" y2="355"/>
				<line fill="none" stroke="#B6E4FA" stroke-width="0.5" stroke-miterlimit="10" x1="26.3" y1="27.1" x2="-520" y2="342.5"/>
				<line fill="none" stroke="#B6E4FA" stroke-width="0.5" stroke-miterlimit="10" x1="19.1" y1="14.7" x2="-527.2" y2="330.1"/>
				<line fill="none" stroke="#B6E4FA" stroke-width="0.5" stroke-miterlimit="10" x1="11.9" y1="2.2" x2="-534.4" y2="317.6"/>
				<line fill="none" stroke="#B6E4FA" stroke-width="0.5" stroke-miterlimit="10" x1="4.7" y1="-10.3" x2="-541.6" y2="305.1"/>
			</g>
		</g>
	</g>
</g>
<g id="Old_Logo">
</g>
<g id="Logo">
	<path fill="#FFFFFF" d="M52,245.5l-0.3-0.3 M342.7,90.3c30.6,43.9,36.9,102.8,11.5,154.1C317,319.5,225.9,350.2,150.9,313
		c-15.6-7.7-29.3-17.8-40.9-29.6c14.1,20.3,33.4,37.4,57.1,49.2c75.1,37.2,166.1,6.5,203.3-68.6C399.9,204.6,386.8,135.1,342.7,90.3
		z M169.5,110c-4-4-9.1-7.2-15.2-9.5c-6.1-2.3-13.3-3.5-21.7-3.5h-16.4c-3.7,0-6.9,2.7-7.5,6.3l-15.9,90.9c-0.8,4.7,2.8,9,7.5,9h12
		l14.3-81.8c0.6-3.7,3.8-6.3,7.5-6.3h16.4c8.4,0,15.6,1.2,21.7,3.5c1.6,0.6,3.1,1.3,4.6,2C175,116.6,172.5,113.1,169.5,110z
		 M238.1,186.7l-0.1,0.6C238,187.1,238.1,186.9,238.1,186.7L238.1,186.7z M235.1,120.1c-3.8-7.1-8.4-13.2-13.8-18.4
		c-1.8-1.7-3.7-3.3-5.7-4.8c-1-0.8-2-1.5-3-2.2c1.6,2.3,3.1,4.8,4.5,7.4c4.6,8.6,7.1,18.8,7.5,30.7h15.5
		C238.8,128.3,237.2,124,235.1,120.1z M354.6,152.2l-18-18c0.6,0.8,1,1.9,0.8,3l-2.4,13.6l-2.6,14.8c-0.3,1.8-1.9,3.1-3.7,3.1h-39.2
		c-3.7,0-6.9,2.6-7.5,6.3l-19.8,109.1c-0.3,1.8-1.8,3-3.6,3h-34.1c-1,0-2-0.4-2.6-1.1l18,18c0.7,0.7,1.6,1.1,2.6,1.1h34.1
		c1.8,0,3.3-1.3,3.6-3L300.1,193c0.7-3.6,3.8-6.3,7.5-6.3h39.2c1.8,0,3.3-1.3,3.7-3.1l5-28.5C355.6,154.1,355.3,153,354.6,152.2z
		 M232.2,168.7h-12c-1,3.5-2.3,6.8-3.7,10.1c-5.4,12.7-13,23.5-22.7,32.5c-9.7,9-21.2,15.9-34.4,20.7c-13.2,4.8-27.6,7.3-43.2,7.3
		H48.2c-0.9,0-1.7-0.3-2.4-0.9l17.9,17.9c0.7,0.6,1.5,1,2.5,1h68.1c15.6,0,29.9-2.4,43.2-7.3c13.2-4.9,24.7-11.8,34.4-20.7
		c9.7-8.9,17.3-19.8,22.7-32.5c1.3-3.1,2.5-6.2,3.5-9.5l0.1-0.6l1.6-9C240.5,173,236.9,168.7,232.2,168.7z M238.1,186.7l-0.1,0.6
		C238,187.1,238.1,186.9,238.1,186.7L238.1,186.7z M221.8,286l-0.2-0.2 M354.8,152.4l-0.2-0.2"/>
</g>
</svg>
