<?xml version="1.0" encoding="utf-8"?>
<!-- Generator: Adobe Illustrator 25.1.0, SVG Export Plug-In . SVG Version: 6.00 Build 0)  -->
<svg version="1.1" id="Design" xmlns="http://www.w3.org/2000/svg" xmlns:xlink="http://www.w3.org/1999/xlink" x="0px" y="0px"
	 viewBox="0 0 32 32" enable-background="new 0 0 32 32" xml:space="preserve">
<g>
	<path fill-rule="evenodd" clip-rule="evenodd" fill="#FFFFFF" d="M16,7.4c-4.6,0-8.4,3.8-8.4,8.4c0,3.7,2.4,6.9,5.7,8
		c0.4,0.1,0.6-0.2,0.6-0.4c0-0.2,0-0.9,0-1.6c-2.3,0.5-2.8-1-2.8-1c-0.4-1-0.9-1.2-0.9-1.2c-0.8-0.5,0.1-0.5,0.1-0.5
		c0.8,0.1,1.3,0.9,1.3,0.9c0.7,1.3,2,0.9,2.4,0.7c0.1-0.5,0.3-0.9,0.5-1.1c-1.9-0.2-3.8-0.9-3.8-4.2c0-0.9,0.3-1.7,0.9-2.3
		c-0.1-0.2-0.4-1.1,0.1-2.2c0,0,0.7-0.2,2.3,0.9c0.7-0.2,1.4-0.3,2.1-0.3c0.7,0,1.4,0.1,2.1,0.3c1.6-1.1,2.3-0.9,2.3-0.9
		c0.5,1.2,0.2,2,0.1,2.2c0.5,0.6,0.9,1.3,0.9,2.3c0,3.2-2,3.9-3.8,4.1c0.3,0.3,0.6,0.8,0.6,1.6c0,1.1,0,2,0,2.3
		c0,0.2,0.2,0.5,0.6,0.4c3.3-1.1,5.7-4.3,5.7-8C24.4,11.2,20.7,7.4,16,7.4z"/>
	<path fill="#FFFFFF" d="M10.8,19.5c0,0-0.1,0.1-0.1,0c-0.1,0-0.1-0.1-0.1-0.1c0,0,0.1-0.1,0.1,0C10.8,19.4,10.8,19.4,10.8,19.5
		L10.8,19.5z M10.7,19.4"/>
	<path fill="#FFFFFF" d="M11.1,19.9c0,0-0.1,0-0.2,0c-0.1-0.1-0.1-0.1,0-0.2c0,0,0.1,0,0.2,0C11.2,19.8,11.2,19.8,11.1,19.9
		L11.1,19.9z M11.1,19.8"/>
	<path fill="#FFFFFF" d="M11.5,20.4c-0.1,0-0.1,0-0.2-0.1c-0.1-0.1-0.1-0.2,0-0.2c0.1,0,0.1,0,0.2,0.1
		C11.5,20.2,11.5,20.3,11.5,20.4L11.5,20.4z M11.5,20.4"/>
	<path fill="#FFFFFF" d="M11.9,20.8c0,0.1-0.1,0-0.2,0c-0.1-0.1-0.1-0.2,0-0.2c0-0.1,0.1,0,0.2,0C11.9,20.7,12,20.8,11.9,20.8
		L11.9,20.8z M11.9,20.8"/>
	<path fill="#FFFFFF" d="M12.5,21.1c0,0.1-0.1,0.1-0.2,0.1c-0.1,0-0.2-0.1-0.1-0.2c0-0.1,0.1-0.1,0.2-0.1
		C12.5,20.9,12.6,21,12.5,21.1L12.5,21.1z M12.5,21.1"/>
	<path fill="#FFFFFF" d="M13.2,21.1c0,0.1-0.1,0.1-0.2,0.1c-0.1,0-0.2-0.1-0.2-0.1c0-0.1,0.1-0.1,0.2-0.1
		C13.1,21,13.2,21.1,13.2,21.1L13.2,21.1z M13.2,21.1"/>
	<path fill="#FFFFFF" d="M13.9,21c0,0.1-0.1,0.1-0.2,0.2c-0.1,0-0.2,0-0.2-0.1c0-0.1,0.1-0.1,0.2-0.2C13.8,20.9,13.9,21,13.9,21
		L13.9,21z M13.9,21"/>
</g>
</svg>
