<?xml version="1.0" encoding="utf-8"?>
<!-- Generator: Adobe Illustrator 25.1.0, SVG Export Plug-In . SVG Version: 6.00 Build 0)  -->
<svg version="1.1" id="Design" xmlns="http://www.w3.org/2000/svg" xmlns:xlink="http://www.w3.org/1999/xlink" x="0px" y="0px"
	 viewBox="0 0 32 32" enable-background="new 0 0 32 32" xml:space="preserve">
<g>
	<g>
		<path fill="#FFFFFF" d="M20.1,5.8h-8C8.7,5.8,6,8.5,6,11.9v8c0,3.3,2.7,6.1,6.1,6.1h8c3.3,0,6.1-2.7,6.1-6.1v-8
			C26.2,8.5,23.4,5.8,20.1,5.8z M24.3,19.9c0,2.3-1.9,4.2-4.2,4.2h-8c-2.3,0-4.2-1.9-4.2-4.2v-8c0-2.3,1.9-4.2,4.2-4.2h8
			c2.3,0,4.2,1.9,4.2,4.2V19.9z"/>
		<path fill="#FFFFFF" d="M22.6,10.7c0,0.7-0.5,1.2-1.2,1.2c-0.7,0-1.2-0.5-1.2-1.2c0-0.7,0.5-1.2,1.2-1.2
			C22.1,9.5,22.6,10,22.6,10.7z"/>
		<path fill="#FFFFFF" d="M16.1,11c-2.7,0-5,2.2-5,5s2.2,5,5,5c2.7,0,5-2.2,5-5S18.9,11,16.1,11z M16.1,19.2c-1.8,0-3.2-1.4-3.2-3.2
			s1.4-3.2,3.2-3.2c1.8,0,3.2,1.4,3.2,3.2S17.9,19.2,16.1,19.2z"/>
	</g>
</g>
</svg>
