<?xml version="1.0" encoding="utf-8"?>
<!-- Generator: Adobe Illustrator 25.1.0, SVG Export Plug-In . SVG Version: 6.00 Build 0)  -->
<svg version="1.1" id="Design" xmlns="http://www.w3.org/2000/svg" xmlns:xlink="http://www.w3.org/1999/xlink" x="0px" y="0px"
	 viewBox="0 0 32 32" style="enable-background:new 0 0 32 32;" xml:space="preserve">
<style type="text/css">
	.st0{fill:#00828F;}
</style>
<g>
	<g>
		<g>
			<g>
				<path class="st0" d="M25,17.2v6c0,0.1-0.1,0.3-0.3,0.3h-3.1c-0.2,0-0.3-0.1-0.3-0.3v-5.6c0-1.5-0.5-2.5-1.8-2.5
					c-1,0-1.6,0.7-1.9,1.3c-0.1,0.2-0.1,0.5-0.1,0.9v5.8c0,0.1-0.1,0.3-0.3,0.3h-3.1c-0.1,0-0.3-0.1-0.3-0.3c0-1.5,0-8.7,0-10.4
					c0-0.1,0.1-0.3,0.3-0.3h3.1c0.1,0,0.3,0.1,0.3,0.3V14l0,0l0,0l0,0c0.5-0.7,1.3-1.8,3.3-1.8C23.3,12.3,25,13.9,25,17.2z"/>
				<path class="st0" d="M12,12.8v10.4c0,0.1-0.1,0.3-0.3,0.3H8.6c-0.2,0-0.3-0.1-0.3-0.3V12.8c0-0.1,0.1-0.3,0.3-0.3h3.1
					C11.9,12.6,12,12.7,12,12.8z"/>
			</g>
		</g>
	</g>
	<g>
		<path class="st0" d="M12,9.3c0,1.1-0.9,1.9-1.9,1.9c-1.1,0-1.9-0.9-1.9-1.9s0.8-2,1.9-2C11.1,7.3,12,8.2,12,9.3z"/>
	</g>
</g>
</svg>
